<svg xmlns="http://www.w3.org/2000/svg" width="30.794" height="30.146" viewBox="0 0 30.794 30.146"><g transform="translate(-2.001 1.332)"><path d="M26.561-1.332H4.234A4.38,4.38,0,0,0,0,3.173V17.712a4.382,4.382,0,0,0,4.219,4.5v6.6l8.911-6.6H26.561a4.381,4.381,0,0,0,4.234-4.5V3.173a4.38,4.38,0,0,0-4.234-4.5Zm2.429,19.044A2.514,2.514,0,0,1,26.561,20.3h-14l-6.54,4.843V20.3H4.234a2.514,2.514,0,0,1-2.429-2.585V3.173A2.513,2.513,0,0,1,4.234.588H26.561A2.513,2.513,0,0,1,28.99,3.173Zm0,0" transform="translate(2)" fill="#fff"/><path d="M171.293,131.172h19.928v2.513H171.293Zm0,0" transform="translate(-164.047 -125.863)" fill="#fff"/><path d="M171.293,211.172h19.928v2.513H171.293Zm0,0" transform="translate(-164.047 -201.853)" fill="#fff"/><path d="M171.293,291.172h19.928v2.513H171.293Zm0,0" transform="translate(-164.047 -277.843)" fill="#fff"/></g></svg>