<svg xmlns="http://www.w3.org/2000/svg" width="33.91" height="41.735" viewBox="0 0 33.91 41.735"><g transform="translate(-48)"><path d="M78.649,5.217H71.476v-1.3A3.917,3.917,0,0,0,67.563,0H62.346a3.917,3.917,0,0,0-3.913,3.913v1.3H51.261A3.264,3.264,0,0,0,48,8.477v4.565a1.3,1.3,0,0,0,1.3,1.3h.713l1.127,23.662a3.908,3.908,0,0,0,3.908,3.727H74.858a3.908,3.908,0,0,0,3.908-3.727l1.127-23.662h.713a1.3,1.3,0,0,0,1.3-1.3V8.477A3.264,3.264,0,0,0,78.649,5.217Zm-17.607-1.3a1.306,1.306,0,0,1,1.3-1.3h5.217a1.306,1.306,0,0,1,1.3,1.3v1.3H61.042ZM50.608,8.477a.653.653,0,0,1,.652-.652H78.649a.653.653,0,0,1,.652.652v3.261H50.608ZM76.161,37.884a1.3,1.3,0,0,1-1.3,1.242H55.052a1.3,1.3,0,0,1-1.3-1.242L52.628,14.346H77.281Z" fill="#fff"/><path d="M241.3,227.563a1.3,1.3,0,0,0,1.3-1.3V209.3a1.3,1.3,0,1,0-2.608,0v16.955A1.3,1.3,0,0,0,241.3,227.563Z" transform="translate(-176.349 -191.045)" fill="#fff"/><path d="M321.3,227.563a1.3,1.3,0,0,0,1.3-1.3V209.3a1.3,1.3,0,1,0-2.608,0v16.955A1.3,1.3,0,0,0,321.3,227.563Z" transform="translate(-249.828 -191.045)" fill="#fff"/><path d="M161.3,227.563a1.3,1.3,0,0,0,1.3-1.3V209.3a1.3,1.3,0,1,0-2.608,0v16.955A1.3,1.3,0,0,0,161.3,227.563Z" transform="translate(-102.87 -191.045)" fill="#fff"/></g></svg>