<svg xmlns="http://www.w3.org/2000/svg" xmlns:xlink="http://www.w3.org/1999/xlink" width="535.241" height="895.592" viewBox="0 0 535.241 895.592"><defs><linearGradient id="a" x1="0.5" y1="1" x2="0.5" gradientUnits="objectBoundingBox"><stop offset="0" stop-color="gray" stop-opacity="0.251"/><stop offset="0.54" stop-color="gray" stop-opacity="0.122"/><stop offset="1" stop-color="gray" stop-opacity="0.102"/></linearGradient><linearGradient id="b" x1="0.5" y1="1" x2="0.5" y2="0" xlink:href="#a"/><linearGradient id="d" x1="0.501" y1="0.999" x2="0.501" y2="-0.001" xlink:href="#a"/><linearGradient id="e" x1="0.5" y1="1" x2="0.5" y2="0.001" xlink:href="#a"/><linearGradient id="g" x1="0.5" y1="1" x2="0.5" y2="0" xlink:href="#a"/><linearGradient id="i" x1="0.5" y1="1" x2="0.5" y2="-0.001" xlink:href="#a"/><linearGradient id="j" x1="0.5" y1="1" x2="0.5" y2="0" xlink:href="#a"/><linearGradient id="n" x1="0.5" y1="1" x2="0.5" y2="0.001" xlink:href="#a"/><linearGradient id="p" x1="0.5" y1="1" x2="0.5" y2="0" xlink:href="#a"/><linearGradient id="q" x1="0.5" y1="1" x2="0.5" y2="0" xlink:href="#a"/><linearGradient id="s" x1="0.5" y1="1" x2="0.5" y2="0" xlink:href="#a"/><linearGradient id="t" x1="0.5" y1="1" x2="0.5" y2="0" xlink:href="#a"/><linearGradient id="u" x1="0.5" y1="1" x2="0.5" y2="0" xlink:href="#a"/><linearGradient id="v" x1="0.5" y1="1" x2="0.5" y2="0" xlink:href="#a"/><linearGradient id="y" x1="0.5" y1="0.999" x2="0.5" y2="0" xlink:href="#a"/><filter id="z" x="226.652" y="11.52" width="136.645" height="79.599" filterUnits="userSpaceOnUse"><feOffset dx="5" input="SourceAlpha"/><feGaussianBlur result="aa"/><feFlood flood-color="#6c63ff"/><feComposite operator="in" in2="aa"/><feComposite in="SourceGraphic"/></filter></defs><g transform="translate(-95.265 -6.59)"><path d="M869.288,46.008l-73.721-4.469L752.911,38.5V38.42h-1.122v.086L522.413,56.856H503.394l-2.234,79.171,36.925,13.017L560.46,262.917l-101.816,201.7L397.12,511.246v44.459L434.045,591.5l2.234,163.761,11.193,2.159v-1.738l5.624,1.079v.648l218.517,73.483,9.185,6.228,19.213-11.97,154.781-89.425ZM634.364,554.734h0L694.226,504h0ZM426.749,575.782l16.19,15.726v.971Z" transform="translate(-238.782 -31.83)" fill="url(#a)"/><path d="M409.731,525.175l218.032,55.048-32.381-36.7-18.349-22.667L385.985,483.08l-8.635,7.556Z" transform="translate(-192.331 37.816)" fill="#535461"/><path d="M377.667,493.493l214.793,49.651,1.079-51.81-61.524-23.746L408.969,447.08H373.35Z" transform="translate(-192.648 34.959)" fill="#d6d6e3"/><path d="M523.017,227.286l219.111,14.032V200.3l-15.111-91.746-7.556-6.476L500.35,108.556Z" transform="translate(-182.569 7.579)" fill="#d6d6e3"/><path d="M481.683,27.08H470.89l-2.159,78.794,35.619,12.952,21.587,113.333L427.715,432.921,368.35,479.334v44.254l35.619,35.619,2.159,162.984,10.794,2.159-2.159-161.9-35.619-37.778-1.079-45.333L435.271,434,535.652,233.239,514.064,118.826l-35.619-15.111,3.238-76.635Z" transform="translate(-193.045 1.626)" fill="#d6d6e3"/><path d="M473.683,27.08H462.89l-2.159,78.794,35.619,12.952,21.587,113.333L419.715,432.921,360.35,479.334v44.254l35.619,35.619,2.159,162.984,10.794,2.159-2.159-161.9-35.619-37.778-1.079-45.333L429.429,434l98.222-200.762L506.064,118.826l-35.619-15.111,3.238-76.635Z" transform="translate(-193.68 1.626)" fill="#535461"/><path d="M464.85,93.413l5.4,7.556L500.469,115l239.619-6.476-23.206-7.016L692.056,90.715l3.238-8.635Z" transform="translate(-185.386 5.991)" fill="#a8a8a8"/><path d="M427.35,422.08,646.461,457.7l44.254-93.9,60.444-134.921L528.81,218.08Z" transform="translate(-188.362 16.785)" fill="#6c63ff"/><g transform="translate(280.003 273.722)" opacity="0.1"><path d="M537.667,254.08,685.54,265.953,608.906,417.064,465.35,395.477Z" transform="translate(-465.35 -254.08)" fill="#fff"/></g><g transform="translate(359.337 284.699)" opacity="0.1"><path d="M542.034,264.25l6.53.529-3.378,6.66-6.336-.95Z" transform="translate(-538.85 -264.25)" fill="#fff"/></g><g transform="translate(360.416 347.302)" opacity="0.1"><path d="M543.034,322.25l6.53.529-3.378,6.66-6.336-.95Z" transform="translate(-539.85 -322.25)" fill="#fff"/></g><g transform="translate(396.035 292.255)" opacity="0.1"><path d="M576.034,271.25l6.53.529-3.378,6.66-6.336-.95Z" transform="translate(-572.85 -271.25)" fill="#fff"/></g><g transform="translate(464.035 295.493)" opacity="0.1"><path d="M639.034,274.25l6.53.529-3.378,6.66-6.336-.95Z" transform="translate(-635.85 -274.25)" fill="#fff"/></g><g transform="translate(372.289 304.128)" opacity="0.1"><path d="M554.034,282.25l6.53.529-3.378,6.66-6.336-.95Z" transform="translate(-550.85 -282.25)" fill="#fff"/></g><g transform="translate(396.035 369.969)" opacity="0.1"><path d="M576.034,343.25l6.53.529-3.378,6.66-6.336-.95Z" transform="translate(-572.85 -343.25)" fill="#fff"/></g><g transform="translate(337.749 332.191)" opacity="0.1"><path d="M522.034,308.25l6.53.529-3.378,6.66-6.336-.95Z" transform="translate(-518.85 -308.25)" fill="#fff"/></g><g transform="translate(437.051 292.255)" opacity="0.1"><path d="M614.034,271.25l6.53.529-3.378,6.66-6.336-.95Z" transform="translate(-610.85 -271.25)" fill="#fff"/></g><g transform="translate(385.242 328.953)" opacity="0.1"><path d="M566.034,305.25l6.53.529-3.378,6.66-6.336-.95Z" transform="translate(-562.85 -305.25)" fill="#fff"/></g><g transform="translate(377.686 287.937)" opacity="0.1"><path d="M559.034,267.25l6.53.529-3.378,6.66-6.336-.95Z" transform="translate(-555.85 -267.25)" fill="#fff"/></g><g transform="translate(411.146 325.715)" opacity="0.1"><path d="M590.034,302.25l6.53.529-3.378,6.66-6.336-.95Z" transform="translate(-586.85 -302.25)" fill="#fff"/></g><g transform="translate(418.702 292.255)" opacity="0.1"><path d="M597.034,271.25l6.53.529-3.378,6.66-6.336-.95Z" transform="translate(-593.85 -271.25)" fill="#fff"/></g><g transform="translate(350.702 307.366)" opacity="0.1"><path d="M534.034,285.25l6.53.529-3.378,6.66-6.336-.95Z" transform="translate(-530.85 -285.25)" fill="#fff"/></g><path d="M373.35,450.374l213.714,43.175,58.869-51.507L432.175,405.58Z" transform="translate(-192.648 31.666)" fill="#d6d6e3"/><path d="M410.35,517.08V685.461l211.555,73.4L625.144,584l-8.635-16.266L577.651,558.1Z" transform="translate(-189.712 40.515)" fill="#535461"/><ellipse cx="9.175" cy="5.397" rx="9.175" ry="5.397" transform="translate(238.988 447.5)" fill="#575988"/><ellipse cx="9.175" cy="5.397" rx="9.175" ry="5.397" transform="translate(246.543 459.373)" fill="#fa595f"/><ellipse cx="9.175" cy="5.397" rx="9.175" ry="5.397" transform="translate(220.638 456.135)" fill="#ffd037"/><ellipse cx="9.175" cy="5.397" rx="9.175" ry="5.397" transform="translate(337.21 466.928)" fill="#575988"/><ellipse cx="9.175" cy="5.397" rx="9.175" ry="5.397" transform="translate(318.861 476.643)" fill="#ffd037"/><ellipse cx="13.492" cy="6.476" rx="13.492" ry="6.476" transform="translate(280.003 459.373)" fill="#a8a8a8"/><ellipse cx="9.175" cy="5.397" rx="9.175" ry="5.397" transform="translate(346.924 478.801)" fill="#fa595f"/><path d="M526.74,465.064h-6.476l-5.57-21.5a6.12,6.12,0,0,1,5.926-7.653h0a6.12,6.12,0,0,1,6.12,6.12Z" transform="translate(-229.467 -0.283)" fill="#a8a8a8"/><ellipse cx="13.492" cy="6.476" rx="13.492" ry="6.476" transform="translate(377.146 476.643)" fill="#a8a8a8"/><path d="M616.74,481.064h-6.476l-5.57-21.5a6.12,6.12,0,0,1,5.926-7.653h0a6.12,6.12,0,0,1,6.12,6.12Z" transform="translate(-222.324 0.986)" fill="#a8a8a8"/><path d="M472.747,28.429,695.1,10.08l-5.4,80.952L467.35,101.826Z" transform="translate(-185.188 0.277)" fill="#535461"/><path d="M685.763,10.08,788.3,17.636,774.271,704.111,617.223,805.032l-10.794-7.556-.54-179.714-34.54-38.857V524.937l60.444-52.889L734.334,244.3,719.763,114.239h7.555l-48.031-16.73Z" transform="translate(-176.934 0.277)" fill="#d6d6e3"/><path d="M694.683,11.08,798.3,17.556,784.271,704.032,615.89,804.413V617.683l-34.54-38.857V524.858l60.444-52.889,102.54-227.746-18.349-130.6-36.7-16.19Z" transform="translate(-176.14 0.356)" fill="#535461"/><path d="M568.264,429.21c-15.111,31.3-52.306,23.185-52.306,23.185-1.921-1.781-13.945-4.76-23.066-6.822-5.85-1.328-10.5-2.256-10.5-2.256l12.769-17.8,9.574,1.964,14.28,2.936S583.429,397.919,568.264,429.21Z" transform="translate(-232.015 -1.895)" fill="url(#b)"/><g transform="translate(250.375 413.715)" opacity="0.08"><path d="M568.264,429.21c-15.111,31.3-52.306,23.185-52.306,23.185-1.921-1.781-13.945-4.76-23.066-6.822-5.85-1.328-10.5-2.256-10.5-2.256l12.769-17.8,9.574,1.964,14.28,2.936S583.429,397.919,568.264,429.21Z" transform="translate(-482.39 -415.61)" fill="url(#b)"/></g><g transform="translate(250.353 423.635)" opacity="0.1"><path d="M504.745,426.754l-11.873,18.1c-5.85-1.328-10.5-2.256-10.5-2.256l12.769-17.8Z" transform="translate(-482.37 -424.8)" fill="url(#d)"/></g><path d="M380.279,369.668s55.663,86.986,115.265,86.781l16.19-24.825s-54.551-38.965-61.8-59.279c-2.677-7.556-8.2-17.907-14.1-28.064-18.1-31.118-66.921-10.794-56.192,23.4Q379.955,368.7,380.279,369.668Z" transform="translate(-240.291 -8.776)" fill="url(#e)"/><g transform="translate(137.828 320.123)" opacity="0.05"><path d="M380.279,369.668s55.663,86.986,115.265,86.781l16.19-24.825s-54.551-38.965-61.8-59.279c-2.677-7.556-8.2-17.907-14.1-28.064-18.1-31.118-66.921-10.794-56.192,23.4Q379.955,368.7,380.279,369.668Z" transform="translate(-378.118 -328.9)" fill="url(#e)"/></g><path d="M346.55,836.75l2.612,30.222s85.5-14.2,84.752-42.6S346.55,836.75,346.55,836.75Z" transform="translate(-242.796 29.749)" fill="url(#g)"/><g transform="translate(103.754 844.063)" opacity="0.1"><path d="M346.55,836.75l2.612,30.222s85.5-14.2,84.752-42.6S346.55,836.75,346.55,836.75Z" transform="translate(-346.55 -814.315)" fill="url(#g)"/></g><path d="M439.36,845.489l-1.49,26.218s118.73-8.743,114.24-33.46-67.2-10.966-67.2-10.966Z" transform="translate(-235.548 30.475)" fill="url(#i)"/><path d="M448.7,613.87s-7.016,19.429-15.975,41.685c-8.57,21.307-18.91,45.258-26.585,57.357-15.683,24.761-17.917,101.234-17.917,101.234-2.99,12.38,11.949,36.418,11.949,36.418-29.866,31.3-57.5,13.114-57.5,13.114,5.224-9.466-3.735-36.418-3.735-36.418s11.949-124.537,19.429-130.366,13.438-34.961,13.438-34.961l-6.681-99-1.533-22.667,64.211-28.4,4.63,22.58,4.587,22.354Z" transform="translate(-243.4 5.745)" fill="url(#j)"/><g transform="translate(95.54 517.615)" opacity="0.1"><path d="M448.7,613.87s-7.016,19.429-15.975,41.685c-8.57,21.307-18.91,45.258-26.585,57.357-15.683,24.761-17.917,101.234-17.917,101.234-2.99,12.38,11.949,36.418,11.949,36.418-29.866,31.3-57.5,13.114-57.5,13.114,5.224-9.466-3.735-36.418-3.735-36.418s11.949-124.537,19.429-130.366,13.438-34.961,13.438-34.961l-6.681-99-1.533-22.667,64.211-28.4,4.63,22.58,4.587,22.354Z" transform="translate(-338.94 -511.87)" fill="url(#j)"/></g><path d="M500.69,853.276c-13.438,23.3-60.444,20.389-60.444,20.389V805.2s-13.438-76.473-5.969-93.9-2.99-49.521-2.99-49.521l-2.569-7.869L398.269,560,389.44,532.78h100.8v12.24c.13,29.143.734,101.363,3.7,118.126,3.735,21.123-6.724,34.961-6.724,34.961s5.969,85.939.745,112.88S500.69,853.276,500.69,853.276Z" transform="translate(-239.392 7.405)" fill="url(#j)"/><path d="M419.71,236.61s-15.683,42.235-47.039,57.53,51.518,19.666,51.518,19.666,13.438-32.046,44.049-54.627Z" transform="translate(-241.285 -16.101)" fill="url(#a)"/><g transform="translate(120.182 517.604)" opacity="0.1"><path d="M492.47,546.723c-12.5,2.407-34.615,6.53-57.271,10.114-11.873,1.878-23.876,3.605-34.734,4.857-16.709,1.932-30.686,2.742-37.163,1.23l-1.533-22.667,64.211-28.4,4.63,22.58h61.826S492.438,539.146,492.47,546.723Z" transform="translate(-361.77 -511.86)" fill="url(#n)"/></g><path d="M504.718,560.8S378.53,586.3,362.857,578.288s-19.429-28.4-14.938-50.978,0-78.653-8.214-150.032c-4.134-35.943,4.976-60.067,15.057-75.156A47.935,47.935,0,0,1,394.7,281.15,60.445,60.445,0,0,1,432.336,294.1c3.152,2.515,6.336,4.576,8.937,5.278,2.051.551,5.138,2.731,8.635,5.7a79.517,79.517,0,0,1,27.275,52.792c1.3,13.568,2.666,30.654,3.335,47.924a389.632,389.632,0,0,1-.453,44.254,145.034,145.034,0,0,0,1.533,32.284C487.416,521.687,504.718,560.8,504.718,560.8Z" transform="translate(-243.42 -12.566)" fill="url(#a)"/><g transform="translate(168.62 331.285)" opacity="0.1"><path d="M476.215,477.776c-45.8-27.869-69.479-105.842-69.479-105.842a17.639,17.639,0,0,0-.076-2.008c-1.025-35.759,51.626-42.646,60.563-7.944,2.9,11.3,5.4,22.764,5.915,30.686a32.8,32.8,0,0,0,2,8.516,389.675,389.675,0,0,1-.453,44.254,145.032,145.032,0,0,0,1.533,32.338Z" transform="translate(-406.646 -339.241)" fill="url(#p)"/></g><g transform="translate(170.577 224.881)" opacity="0.1"><path d="M408.46,261.416c7.448,12.316,13.341,24.717,28.463,26.822a136.968,136.968,0,0,1,25.667-25l-48.571-22.58S416.868,248.367,408.46,261.416Z" transform="translate(-408.46 -240.66)" fill="url(#q)"/></g><ellipse cx="49.284" cy="48.064" rx="49.284" ry="48.064" transform="translate(159.007 172.434)" fill="url(#b)"/><g transform="translate(146.2 148.976)" opacity="0.1"><path d="M496.677,256.938a10.07,10.07,0,0,0,5.785-1.533c2.364-1.716,3.119-4.792,3.659-7.62,1.284-6.681,2.288-13.719,0-20.152-1.479-4.253-4.318-7.933-6.3-11.97-4.425-8.818-5.213-19.429-11.528-27.081-3.94-4.792-17.788,0-23.573-2.418-12.434-5.224-17.831-15.823-31.377-15.813a50.05,50.05,0,0,0-14.7,1.835c-6.055,1.867-11.409,5.4-16.385,9.272-8.635,6.714-17.1,15.931-16.331,26.7.5,6.876,4.7,12.952,7.167,19.364,4.145,10.794,3.389,22.926.4,34.108-1.274,4.76-2.731,10.448.648,14.086,2.159,2.277,5.58,2.925,8.635,2.429a28.755,28.755,0,0,0,8.635-3.454c4.857-2.58,9.779-5.2,13.708-8.991,2.6-2.5,4.7-5.462,7.167-8.084a79.222,79.222,0,0,1,16.3-12.952c4.782-2.871,9.714-1.079,14.733.788C474.345,249.5,484.545,257.154,496.677,256.938Z" transform="translate(-385.875 -170.336)" fill="url(#s)"/></g><path d="M495.987,256.258a10.07,10.07,0,0,0,5.785-1.533c2.364-1.716,3.119-4.792,3.659-7.62,1.284-6.681,2.288-13.719,0-20.152-1.479-4.253-4.317-7.933-6.3-11.97-4.425-8.818-5.213-19.429-11.528-27.081-3.94-4.792-17.043.734-22.829-1.695-12.434-5.224-18.576-16.547-32.122-16.536a50.051,50.051,0,0,0-14.7,1.835c-6.055,1.867-11.409,5.4-16.385,9.272-8.635,6.714-17.1,15.931-16.331,26.7.5,6.876,4.7,12.952,7.167,19.364,4.145,10.794,3.389,22.926.4,34.108-1.274,4.76-2.731,10.448.648,14.086,2.159,2.277,5.58,2.925,8.635,2.429a28.753,28.753,0,0,0,8.635-3.454c4.857-2.58,9.779-5.2,13.708-8.991,2.6-2.5,4.7-5.462,7.167-8.084a79.224,79.224,0,0,1,16.3-12.952c4.782-2.871,9.714-1.079,14.733.788C473.655,248.821,483.855,256.474,495.987,256.258Z" transform="translate(-239.73 -21.415)" fill="url(#t)"/><g transform="translate(126.28 279.169)" opacity="0.05"><path d="M479.328,481.608a145.034,145.034,0,0,1-1.533-32.284,389.661,389.661,0,0,0,.453-44.254c-.669-17.27-2.029-34.356-3.335-47.924a79.517,79.517,0,0,0-27.34-52.824c-3.465-2.968-6.552-5.159-8.635-5.7-2.6-.691-5.785-2.763-8.937-5.278-10.6-8.451,2.871,8.009,6.336,10.977a79.516,79.516,0,0,1,27.34,52.824c1.3,13.568,2.666,30.654,3.335,47.924a389.659,389.659,0,0,1-.453,44.254,145.039,145.039,0,0,0,1.533,32.284C473.9,520.93,491.2,560.024,491.2,560.024S406.73,577.089,367.42,578.9c30.805,2.159,134.975-18.878,134.975-18.878S485.135,520.908,479.328,481.608Z" transform="translate(-367.42 -290.957)" fill="url(#u)"/></g><path d="M572.9,475.78c-23.152,26.218-56.742,8.743-56.742,8.743-1.371-2.224-12.143-8.214-20.357-12.575-5.278-2.8-9.509-4.911-9.509-4.911L503.463,453.2l8.689,4.382,12.952,6.541S596.072,449.563,572.9,475.78Z" transform="translate(-231.706 1.089)" fill="url(#v)"/><g transform="translate(254.584 454.289)" opacity="0.1"><path d="M512.152,457.582,495.8,471.949c-5.278-2.8-9.509-4.911-9.509-4.911L503.463,453.2Z" transform="translate(-486.29 -453.2)" fill="url(#a)"/></g><path d="M408.127,369.914s29.866,98.319,87.364,113.614l22.4-19.666S476,412.117,474.529,390.648c-.529-7.933-3.011-19.429-5.915-30.686-8.937-34.691-61.589-27.815-60.563,7.944Q408.083,368.9,408.127,369.914Z" transform="translate(-237.916 -8.115)" fill="url(#a)"/><path d="M354.51,456.83s19.429-15.295,37.335-3.637,44.049,10.2,47.783,10.923" transform="translate(-242.164 0.741)" opacity="0.05" fill="url(#y)"/><path d="M562.779,427.7C548.369,458.229,513,450.371,513,450.371c-1.835-1.738-13.276-4.641-21.943-6.649-5.57-1.3-9.995-2.159-9.995-2.159L493.214,424.2l9.11,1.921,13.589,2.86S577.188,397.169,562.779,427.7Z" transform="translate(-232.121 -1.986)" fill="#f7c4a7"/><path d="M562.779,427.7C548.369,458.229,513,450.371,513,450.371c-1.835-1.738-13.276-4.641-21.943-6.649-5.57-1.3-9.995-2.159-9.995-2.159L493.214,424.2l9.11,1.921,13.589,2.86S577.188,397.169,562.779,427.7Z" transform="translate(-232.121 -1.986)" opacity="0.08"/><path d="M502.324,425.3l-11.268,17.658c-5.57-1.3-10-2.159-10-2.159l12.154-17.367Z" transform="translate(-232.121 -1.274)" opacity="0.1"/><path d="M383.88,369.6s52.975,84.881,109.685,84.665l15.424-24.178s-51.907-38.015-58.815-57.843c-2.547-7.318-7.8-17.464-13.406-27.351-17.27-30.352-63.683-10.524-53.482,22.839Z" transform="translate(-239.995 -8.697)" fill="#575988"/><path d="M383.88,369.6s52.975,84.881,109.685,84.665l15.424-24.178s-51.907-38.015-58.815-57.843c-2.547-7.318-7.8-17.464-13.406-27.351-17.27-30.352-63.683-10.524-53.482,22.839Z" transform="translate(-239.995 -8.697)" opacity="0.05"/><path d="M351.78,825.339l2.482,29.488s81.363-13.859,80.65-41.566S351.78,825.339,351.78,825.339Z" transform="translate(-242.381 28.886)" fill="#535461"/><path d="M351.78,825.339l2.482,29.488s81.363-13.859,80.65-41.566S351.78,825.339,351.78,825.339Z" transform="translate(-242.381 28.886)" opacity="0.1"/><path d="M440.1,833.872l-1.425,25.592S551.668,850.937,547.4,826.78s-63.952-10.664-63.952-10.664Z" transform="translate(-235.484 29.593)" fill="#535461"/><path d="M448.989,607.865s-6.681,18.932-15.208,40.67c-8.16,20.789-18,44.157-25.3,55.965-14.874,24.167-17.032,98.773-17.032,98.773-2.839,12.078,11.366,35.533,11.366,35.533C374.394,869.363,348.1,851.6,348.1,851.6c4.976-9.239-3.551-35.533-3.551-35.533s11.366-121.515,18.479-127.192,12.78-34.108,12.78-34.108l-6.357-96.592L367.994,536.1l61.114-27.718,4.436,22.03,4.317,21.814Z" transform="translate(-242.955 5.468)" fill="#6a5c99"/><path d="M448.989,607.865s-6.681,18.932-15.208,40.67c-8.16,20.789-18,44.157-25.3,55.965-14.874,24.167-17.032,98.773-17.032,98.773-2.839,12.078,11.366,35.533,11.366,35.533C374.394,869.363,348.1,851.6,348.1,851.6c4.976-9.239-3.551-35.533-3.551-35.533s11.366-121.515,18.479-127.192,12.78-34.108,12.78-34.108l-6.357-96.592L367.994,536.1l61.114-27.718,4.436,22.03,4.317,21.814Z" transform="translate(-242.955 5.468)" opacity="0.1"/><path d="M498.476,841.45c-12.79,22.742-57.562,19.893-57.562,19.893v-66.8s-12.79-74.616-5.688-91.67-2.839-48.323-2.839-48.323l-2.418-7.642-28.981-91.573-8.4-26.552h95.934v11.949c.119,28.42.7,98.9,3.529,115.255,3.551,20.605-6.4,34.108-6.4,34.108s5.688,83.845.712,110.1S498.476,841.45,498.476,841.45Z" transform="translate(-239.142 7.087)" fill="#6a5c99"/><path d="M421.4,239.78s-14.928,41.21-44.772,56.127S425.661,315.1,425.661,315.1s12.79-31.3,41.923-53.3Z" transform="translate(-240.944 -15.849)" fill="#f7c4a7"/><path d="M490.647,542.359c-11.895,2.31-32.921,6.368-54.508,9.865-11.29,1.835-22.721,3.519-33.061,4.739-15.9,1.878-29.208,2.677-35.371,1.2l-1.457-22.073,61.114-27.718,4.458,22.041h58.836S490.615,534.955,490.647,542.359Z" transform="translate(-241.232 5.467)" opacity="0.1"/><path d="M502.308,556.067S382.218,580.892,367.3,573.121s-18.479-27.718-14.215-49.737,0-76.743-7.815-146.383c-3.94-35.069,4.738-58.6,14.323-73.332a45.334,45.334,0,0,1,37.994-20.508A56.57,56.57,0,0,1,433.4,295.778c3,2.45,6.034,4.468,8.505,5.148,1.954.529,4.889,2.666,8.182,5.559a78.243,78.243,0,0,1,26.023,51.54c1.241,13.233,2.536,29.909,3.173,46.769a389.794,389.794,0,0,1-.421,43.174,145.041,145.041,0,0,0,1.457,31.5C485.837,517.954,502.308,556.067,502.308,556.067Z" transform="translate(-242.975 -12.406)" fill="#575988"/><path d="M475.178,475.089c-43.585-27.189-66.122-103.274-66.122-103.274a16.7,16.7,0,0,0-.076-1.954c-.971-34.885,49.133-41.609,57.638-7.75,2.763,11.031,5.127,22.2,5.623,29.942a32.681,32.681,0,0,0,1.9,8.311,389.779,389.779,0,0,1-.421,43.174,145.03,145.03,0,0,0,1.457,31.55Z" transform="translate(-237.842 -7.901)" opacity="0.1"/><path d="M410.7,263.98c7.081,12.013,12.693,24.124,27.092,26.164a131.943,131.943,0,0,1,24.426-24.394l-46.186-22.03S418.7,251.254,410.7,263.98Z" transform="translate(-237.705 -15.536)" opacity="0.1"/><circle cx="46.898" cy="46.898" r="46.898" transform="translate(161.986 177.032)" fill="#f7c4a7"/><path d="M494.657,259.615a9.412,9.412,0,0,0,5.5-1.511c2.245-1.673,2.968-4.684,3.476-7.437,1.22-6.476,2.159-13.384,0-19.666-1.4-4.156-4.069-7.739-6-11.679-4.22-8.635-4.965-18.954-10.966-26.423-3.756-4.674-16.924,0-22.44-2.364-11.873-5.095-16.968-15.435-29.855-15.424a46.52,46.52,0,0,0-14.032,1.792c-5.764,1.813-10.858,5.289-15.586,9.045C396.51,192.5,388.479,201.491,389.213,212c.475,6.714,4.469,12.585,6.822,18.889,3.95,10.556,3.238,22.375.378,33.277-1.209,4.641-2.6,10.189.615,13.751,2.008,2.213,5.311,2.86,8.257,2.364a26.982,26.982,0,0,0,8.257-3.368c4.62-2.515,9.3-5.073,13.039-8.764,2.472-2.45,4.469-5.332,6.822-7.89a75.737,75.737,0,0,1,15.51-12.639c4.555-2.8,9.229-1.079,14.032.766C473.4,252.361,483.107,259.83,494.657,259.615Z" transform="translate(-239.414 -20.983)" opacity="0.1"/><path d="M494,258.957a9.412,9.412,0,0,0,5.5-1.49c2.245-1.673,2.968-4.684,3.476-7.437,1.22-6.476,2.159-13.384,0-19.666-1.4-4.156-4.069-7.739-6-11.679-4.22-8.635-4.965-18.954-10.966-26.423-3.756-4.674-16.19.723-21.728-1.651-11.873-5.095-17.68-16.19-30.568-16.19a46.519,46.519,0,0,0-14.032,1.792c-5.764,1.813-10.858,5.289-15.586,9.045-8.246,6.552-16.277,15.543-15.543,26.056.475,6.714,4.469,12.585,6.822,18.889,3.951,10.556,3.238,22.375.378,33.277-1.209,4.641-2.6,10.189.615,13.751,2.008,2.213,5.31,2.86,8.257,2.364a26.984,26.984,0,0,0,8.257-3.368c4.62-2.515,9.3-5.073,13.039-8.764,2.472-2.45,4.469-5.332,6.822-7.89a75.737,75.737,0,0,1,15.661-12.6c4.555-2.8,9.229-1.079,14.032.766C472.744,251.682,482.447,259.173,494,258.957Z" transform="translate(-239.466 -21.038)" fill="#632652"/><path d="M478.134,478.825a145.035,145.035,0,0,1-1.414-31.464,389.78,389.78,0,0,0,.421-43.175c-.637-16.86-1.932-33.525-3.173-46.769a78.243,78.243,0,0,0-26.023-51.54c-3.292-2.9-6.228-5.03-8.182-5.559-2.472-.68-5.5-2.7-8.505-5.149-10.092-8.246,2.731,7.815,6.034,10.707a78.243,78.243,0,0,1,26.023,51.54c1.241,13.233,2.536,29.909,3.173,46.769a389.811,389.811,0,0,1-.421,43.175,145.018,145.018,0,0,0,1.457,31.5c5.526,38.361,22,76.505,22,76.505S409.13,572.007,371.73,573.788c29.315,2.159,128.444-18.425,128.444-18.425S483.66,517.186,478.134,478.825Z" transform="translate(-240.798 -11.638)" opacity="0.05"/><path d="M567.192,473.14c-22.03,25.581-53.968,8.527-53.968,8.527-1.3-2.159-11.549-8.02-19.429-12.262-5.019-2.731-9.045-4.792-9.045-4.792l16.342-13.5,8.268,4.317,12.359,6.358S589.222,447.559,567.192,473.14Z" transform="translate(-231.828 0.923)" fill="#f7c4a7"/><path d="M509.379,455.384l-15.564,14.032c-5.019-2.731-9.045-4.792-9.045-4.792l16.342-13.5Z" transform="translate(-231.826 0.924)" opacity="0.1"/><path d="M410.378,369.845S438.8,465.779,493.489,480.7l21.317-19.191s-39.937-50.482-41.264-71.432c-.507-7.739-2.86-18.921-5.634-29.942C459.4,326.282,409.3,333,410.281,367.881Q410.335,368.852,410.378,369.845Z" transform="translate(-237.739 -8.058)" fill="#575988"/><path d="M359.35,454.646s18.479-14.928,35.533-3.551,41.923,9.952,45.474,10.664" transform="translate(-241.78 0.582)" opacity="0.05"/><g transform="matrix(1, 0, 0, 1, 95.26, 6.59)" filter="url(#z)"><text transform="matrix(1, -0.05, 0.05, 1, 229.79, 78.14)" fill="#fff" font-size="60" font-family="Verdana-Bold, Verdana" font-weight="700"><tspan x="0" y="0">404</tspan></text></g></g></svg>