<svg xmlns="http://www.w3.org/2000/svg" width="34" height="33.997" viewBox="0 0 34 33.997"><path d="M30.095,1.339a4.682,4.682,0,0,0-6.616,0L21.823,3,4.194,20.624l-.037.038c-.009.009-.009.019-.019.019-.019.028-.047.056-.065.084,0,.009-.01.009-.01.019-.019.028-.028.047-.047.075-.009.009-.009.018-.018.028-.009.028-.019.047-.028.075,0,.009-.009.009-.009.019L.049,32.742a.921.921,0,0,0,.224.954.941.941,0,0,0,.664.272,1.1,1.1,0,0,0,.3-.047L12.99,30c.009,0,.009,0,.019-.009a.339.339,0,0,0,.084-.038.033.033,0,0,0,.019-.009c.028-.019.065-.038.093-.056s.056-.047.084-.065c.009-.01.018-.01.018-.019s.028-.018.038-.037L32.63,10.481a4.682,4.682,0,0,0,0-6.616ZM12.69,27.8,6.178,21.289l16.3-16.3L28.99,11.5ZM5.26,23.02l5.689,5.689L2.407,31.553ZM31.311,9.171l-.992,1L23.806,3.659l1-1a2.807,2.807,0,0,1,3.967,0L31.32,5.2a2.816,2.816,0,0,1-.009,3.968Zm0,0" transform="translate(0.001 0.029)" fill="#fff"/></svg>