<svg xmlns="http://www.w3.org/2000/svg" width="32" height="27.814" viewBox="0 0 32 27.814">
  <path id="send_message" d="M31.979,34.628a.938.938,0,0,0-1.25-1.073L.6,45.054a.937.937,0,0,0,0,1.75l8.463,3.268V60.368a.938.938,0,0,0,1.775.422l3.5-6.945,8.541,6.339a.938.938,0,0,0,1.455-.479C32.31,33.557,31.965,34.694,31.979,34.628Zm-7.436,3.295L9.868,48.374,3.554,45.935Zm-13.6,11.991L23.73,40.8C12.723,52.416,13.3,51.8,13.25,51.869c-.071.1.124-.278-2.311,4.555Zm11.991,7.972-7.518-5.58L29.005,37.964Z" transform="translate(-0.001 -33.492)"/>
</svg>
