<svg xmlns="http://www.w3.org/2000/svg" width="66.813" height="54.912" viewBox="0 0 66.813 54.912"><path d="M66.43,50.406a1.452,1.452,0,0,0-1.743-.308,12.407,12.407,0,0,1-1.856.671,13.071,13.071,0,0,0,2.208-4.25A1.452,1.452,0,0,0,62.8,44.956a30.529,30.529,0,0,1-6.989,2.734A14.618,14.618,0,0,0,37.5,46.275a14.414,14.414,0,0,0-6.275,13.319A34.4,34.4,0,0,1,7.133,46.62,1.5,1.5,0,0,0,5.9,46.077a1.452,1.452,0,0,0-1.162.709A14.06,14.06,0,0,0,3.133,57.7a15.543,15.543,0,0,0,2.524,5.278,7.712,7.712,0,0,1-1.476-.944,1.453,1.453,0,0,0-2.368,1.127,15.022,15.022,0,0,0,7.739,12.9,10.773,10.773,0,0,1-1.871-.4,1.453,1.453,0,0,0-1.743,1.987,15.852,15.852,0,0,0,11,9.005A25.593,25.593,0,0,1,1.62,89.806,1.432,1.432,0,0,0,.071,90.8,1.453,1.453,0,0,0,.74,92.513a43.531,43.531,0,0,0,21.468,6.1,36.87,36.87,0,0,0,20.375-6.231C54.1,84.742,61.27,71.025,60.271,58.752a27.134,27.134,0,0,0,6.315-6.583A1.453,1.453,0,0,0,66.43,50.406Z" transform="translate(0 -43.702)" fill="#fff"/></svg>