<svg xmlns="http://www.w3.org/2000/svg" width="244.257" height="232.448" viewBox="0 0 244.257 232.448">
  <g id="no-comments-ico" transform="translate(0 0)">
    <path id="Trazado_12" data-name="Trazado 12" d="M217.1,82.347l25.76-25.76a4.771,4.771,0,0,0-1.077-7.555l-30.968-17a4.771,4.771,0,1,0-4.592,8.364l25.4,13.945L209.512,76.442,130,32.781l22.105-22.105,22.346,12.271a4.771,4.771,0,0,0,4.592-8.364l-25.484-14a4.769,4.769,0,0,0-5.669.809L122.129,27.159,96.367,1.4A4.772,4.772,0,0,0,90.7.589L2.475,49.033A4.771,4.771,0,0,0,1.4,56.588l25.76,25.76L1.4,108.105a4.771,4.771,0,0,0,1.077,7.555l26.66,14.64v48.933a4.773,4.773,0,0,0,2.475,4.184l88.224,48.443a4.77,4.77,0,0,0,4.592,0l88.224-48.443a4.773,4.773,0,0,0,2.475-4.184V130.3l26.66-14.638a4.771,4.771,0,0,0,1.077-7.555Zm-94.971,43-78.311-43,78.311-43,78.311,43ZM92.154,10.676l22.1,22.105L34.746,76.442,12.64,54.337ZM34.75,88.251l79.512,43.661L92.154,154.019,12.641,110.358Zm170.832,88.16-78.682,43.2V170.848a4.771,4.771,0,0,0-9.541,0v48.767l-78.682-43.2V135.54L90.7,164.106a4.769,4.769,0,0,0,5.669-.809l25.762-25.762L147.89,163.3a4.769,4.769,0,0,0,5.669.809l52.023-28.566Zm-53.476-22.392L130,131.91,209.51,88.251l22.109,22.105Zm0,0" transform="translate(0 0)" fill="#fff"/>
    <path id="Trazado_13" data-name="Trazado 13" d="M399.572,57.717a4.775,4.775,0,1,0-3.373-1.4A4.812,4.812,0,0,0,399.572,57.717Zm0,0" transform="translate(-206.455 -25.193)" fill="#fff"/>
    <path id="Trazado_14" data-name="Trazado 14" d="M250.771,314.926a4.772,4.772,0,1,0,3.373,1.4A4.8,4.8,0,0,0,250.771,314.926Zm0,0" transform="translate(-128.642 -164.686)" fill="#fff"/>
  </g>
</svg>
